<svg id="my-svg" width="100%" xmlns="http://www.w3.org/2000/svg" xmlns:xlink="http://www.w3.org/1999/xlink" class="flowchart" style="max-width: 1202.15px; background-color: white;" viewBox="0 0 1202.1484375 1480" role="graphics-document document" aria-roledescription="flowchart-v2"><style>#my-svg{font-family:"trebuchet ms",verdana,arial,sans-serif;font-size:16px;fill:#333;}@keyframes edge-animation-frame{from{stroke-dashoffset:0;}}@keyframes dash{to{stroke-dashoffset:0;}}#my-svg .edge-animation-slow{stroke-dasharray:9,5!important;stroke-dashoffset:900;animation:dash 50s linear infinite;stroke-linecap:round;}#my-svg .edge-animation-fast{stroke-dasharray:9,5!important;stroke-dashoffset:900;animation:dash 20s linear infinite;stroke-linecap:round;}#my-svg .error-icon{fill:#552222;}#my-svg .error-text{fill:#552222;stroke:#552222;}#my-svg .edge-thickness-normal{stroke-width:1px;}#my-svg .edge-thickness-thick{stroke-width:3.5px;}#my-svg .edge-pattern-solid{stroke-dasharray:0;}#my-svg .edge-thickness-invisible{stroke-width:0;fill:none;}#my-svg .edge-pattern-dashed{stroke-dasharray:3;}#my-svg .edge-pattern-dotted{stroke-dasharray:2;}#my-svg .marker{fill:#333333;stroke:#333333;}#my-svg .marker.cross{stroke:#333333;}#my-svg svg{font-family:"trebuchet ms",verdana,arial,sans-serif;font-size:16px;}#my-svg p{margin:0;}#my-svg .label{font-family:"trebuchet ms",verdana,arial,sans-serif;color:#333;}#my-svg .cluster-label text{fill:#333;}#my-svg .cluster-label span{color:#333;}#my-svg .cluster-label span p{background-color:transparent;}#my-svg .label text,#my-svg span{fill:#333;color:#333;}#my-svg .node rect,#my-svg .node circle,#my-svg .node ellipse,#my-svg .node polygon,#my-svg .node path{fill:#ECECFF;stroke:#9370DB;stroke-width:1px;}#my-svg .rough-node .label text,#my-svg .node .label text,#my-svg .image-shape .label,#my-svg .icon-shape .label{text-anchor:middle;}#my-svg .node .katex path{fill:#000;stroke:#000;stroke-width:1px;}#my-svg .rough-node .label,#my-svg .node .label,#my-svg .image-shape .label,#my-svg .icon-shape .label{text-align:center;}#my-svg .node.clickable{cursor:pointer;}#my-svg .root .anchor path{fill:#333333!important;stroke-width:0;stroke:#333333;}#my-svg .arrowheadPath{fill:#333333;}#my-svg .edgePath .path{stroke:#333333;stroke-width:2.0px;}#my-svg .flowchart-link{stroke:#333333;fill:none;}#my-svg .edgeLabel{background-color:rgba(232,232,232, 0.8);text-align:center;}#my-svg .edgeLabel p{background-color:rgba(232,232,232, 0.8);}#my-svg .edgeLabel rect{opacity:0.5;background-color:rgba(232,232,232, 0.8);fill:rgba(232,232,232, 0.8);}#my-svg .labelBkg{background-color:rgba(232, 232, 232, 0.5);}#my-svg .cluster rect{fill:#ffffde;stroke:#aaaa33;stroke-width:1px;}#my-svg .cluster text{fill:#333;}#my-svg .cluster span{color:#333;}#my-svg div.mermaidTooltip{position:absolute;text-align:center;max-width:200px;padding:2px;font-family:"trebuchet ms",verdana,arial,sans-serif;font-size:12px;background:hsl(80, 100%, 96.2745098039%);border:1px solid #aaaa33;border-radius:2px;pointer-events:none;z-index:100;}#my-svg .flowchartTitleText{text-anchor:middle;font-size:18px;fill:#333;}#my-svg rect.text{fill:none;stroke-width:0;}#my-svg .icon-shape,#my-svg .image-shape{background-color:rgba(232,232,232, 0.8);text-align:center;}#my-svg .icon-shape p,#my-svg .image-shape p{background-color:rgba(232,232,232, 0.8);padding:2px;}#my-svg .icon-shape rect,#my-svg .image-shape rect{opacity:0.5;background-color:rgba(232,232,232, 0.8);fill:rgba(232,232,232, 0.8);}#my-svg .label-icon{display:inline-block;height:1em;overflow:visible;vertical-align:-0.125em;}#my-svg .node .label-icon path{fill:currentColor;stroke:revert;stroke-width:revert;}#my-svg :root{--mermaid-font-family:"trebuchet ms",verdana,arial,sans-serif;}#my-svg .default&gt;*{fill:#f9f9f9!important;stroke:#333!important;stroke-width:2px!important;}#my-svg .default span{fill:#f9f9f9!important;stroke:#333!important;stroke-width:2px!important;}#my-svg .api&gt;*{fill:#dbeafe!important;stroke:#2563eb!important;stroke-width:2px!important;}#my-svg .api span{fill:#dbeafe!important;stroke:#2563eb!important;stroke-width:2px!important;}#my-svg .acp&gt;*{fill:#fef3c7!important;stroke:#d97706!important;stroke-width:2px!important;}#my-svg .acp span{fill:#fef3c7!important;stroke:#d97706!important;stroke-width:2px!important;}#my-svg .exec&gt;*{fill:#d1fae5!important;stroke:#059669!important;stroke-width:2px!important;}#my-svg .exec span{fill:#d1fae5!important;stroke:#059669!important;stroke-width:2px!important;}#my-svg .mem&gt;*{fill:#f3e8ff!important;stroke:#9333ea!important;stroke-width:2px!important;}#my-svg .mem span{fill:#f3e8ff!important;stroke:#9333ea!important;stroke-width:2px!important;}#my-svg .gov&gt;*{fill:#fee2e2!important;stroke:#dc2626!important;stroke-width:2px!important;}#my-svg .gov span{fill:#fee2e2!important;stroke:#dc2626!important;stroke-width:2px!important;}</style><g><marker id="my-svg_flowchart-v2-pointEnd" class="marker flowchart-v2" viewBox="0 0 10 10" refX="5" refY="5" markerUnits="userSpaceOnUse" markerWidth="8" markerHeight="8" orient="auto"><path d="M 0 0 L 10 5 L 0 10 z" class="arrowMarkerPath" style="stroke-width: 1; stroke-dasharray: 1, 0;"/></marker><marker id="my-svg_flowchart-v2-pointStart" class="marker flowchart-v2" viewBox="0 0 10 10" refX="4.5" refY="5" markerUnits="userSpaceOnUse" markerWidth="8" markerHeight="8" orient="auto"><path d="M 0 5 L 10 10 L 10 0 z" class="arrowMarkerPath" style="stroke-width: 1; stroke-dasharray: 1, 0;"/></marker><marker id="my-svg_flowchart-v2-circleEnd" class="marker flowchart-v2" viewBox="0 0 10 10" refX="11" refY="5" markerUnits="userSpaceOnUse" markerWidth="11" markerHeight="11" orient="auto"><circle cx="5" cy="5" r="5" class="arrowMarkerPath" style="stroke-width: 1; stroke-dasharray: 1, 0;"/></marker><marker id="my-svg_flowchart-v2-circleStart" class="marker flowchart-v2" viewBox="0 0 10 10" refX="-1" refY="5" markerUnits="userSpaceOnUse" markerWidth="11" markerHeight="11" orient="auto"><circle cx="5" cy="5" r="5" class="arrowMarkerPath" style="stroke-width: 1; stroke-dasharray: 1, 0;"/></marker><marker id="my-svg_flowchart-v2-crossEnd" class="marker cross flowchart-v2" viewBox="0 0 11 11" refX="12" refY="5.2" markerUnits="userSpaceOnUse" markerWidth="11" markerHeight="11" orient="auto"><path d="M 1,1 l 9,9 M 10,1 l -9,9" class="arrowMarkerPath" style="stroke-width: 2; stroke-dasharray: 1, 0;"/></marker><marker id="my-svg_flowchart-v2-crossStart" class="marker cross flowchart-v2" viewBox="0 0 11 11" refX="-1" refY="5.2" markerUnits="userSpaceOnUse" markerWidth="11" markerHeight="11" orient="auto"><path d="M 1,1 l 9,9 M 10,1 l -9,9" class="arrowMarkerPath" style="stroke-width: 2; stroke-dasharray: 1, 0;"/></marker><g class="root"><g class="clusters"><g class="cluster" id="Gov" data-look="classic"><rect style="" x="8" y="524" width="1186.1484375" height="666"/><g class="cluster-label" transform="translate(540.37109375, 524)"><foreignObject width="121.40625" height="24"><div xmlns="http://www.w3.org/1999/xhtml" style="display: table-cell; white-space: nowrap; line-height: 1.5; max-width: 200px; text-align: center;"><span class="nodeLabel"><p>Governance + CI</p></span></div></foreignObject></g></g><g class="cluster" id="Memory" data-look="classic"><rect style="" x="92.9921875" y="1240" width="721.03125" height="232"/><g class="cluster-label" transform="translate(383.9296875, 1240)"><foreignObject width="139.15625" height="24"><div xmlns="http://www.w3.org/1999/xhtml" style="display: table-cell; white-space: nowrap; line-height: 1.5; max-width: 200px; text-align: center;"><span class="nodeLabel"><p>Memory + Retrieval</p></span></div></foreignObject></g></g><g class="cluster acp" id="ACP" data-look="classic"><rect style="fill:#fef3c7 !important;stroke:#d97706 !important;stroke-width:2px !important" x="141.5078125" y="370" width="759.8359375" height="104"/><g class="cluster-label" transform="translate(444.04296875, 370)"><foreignObject width="154.765625" height="24"><div xmlns="http://www.w3.org/1999/xhtml" style="display: table-cell; white-space: nowrap; line-height: 1.5; max-width: 200px; text-align: center;"><span class="nodeLabel"><p>Agentic Control Plane</p></span></div></foreignObject></g></g><g class="cluster api" id="API" data-look="classic"><rect style="fill:#dbeafe !important;stroke:#2563eb !important;stroke-width:2px !important" x="374.8125" y="8" width="312.984375" height="312"/><g class="cluster-label" transform="translate(447.03125, 8)"><foreignObject width="168.546875" height="24"><div xmlns="http://www.w3.org/1999/xhtml" style="display: table-cell; white-space: nowrap; line-height: 1.5; max-width: 200px; text-align: center;"><span class="nodeLabel"><p>API + Experience Layer</p></span></div></foreignObject></g></g><g class="cluster" id="Execution" data-look="classic"><rect style="" x="28" y="653" width="896.4921875" height="512"/><g class="cluster-label" transform="translate(414.87890625, 653)"><foreignObject width="122.734375" height="24"><div xmlns="http://www.w3.org/1999/xhtml" style="display: table-cell; white-space: nowrap; line-height: 1.5; max-width: 200px; text-align: center;"><span class="nodeLabel"><p>Execution Layers</p></span></div></foreignObject></g></g></g><g class="edgePaths"><path d="M582.803,87L587.402,91.167C592.002,95.333,601.2,103.667,605.799,116.5C610.398,129.333,610.398,146.667,610.398,164C610.398,181.333,610.398,198.667,606.293,211.052C602.188,223.438,593.978,230.876,589.873,234.595L585.767,238.314" id="L_User_API_GW_0" class="edge-thickness-normal edge-pattern-solid edge-thickness-normal edge-pattern-solid flowchart-link" style=";" data-edge="true" data-et="edge" data-id="L_User_API_GW_0" data-points="W3sieCI6NTgyLjgwMzAzNDg1NTc2OTMsInkiOjg3fSx7IngiOjYxMC4zOTg0Mzc1LCJ5IjoxMTJ9LHsieCI6NjEwLjM5ODQzNzUsInkiOjE2NH0seyJ4Ijo2MTAuMzk4NDM3NSwieSI6MjE2fSx7IngiOjU4Mi44MDMwMzQ4NTU3NjkzLCJ5IjoyNDF9XQ==" marker-end="url(#my-svg_flowchart-v2-pointEnd)"/><path d="M524.237,87L519.799,91.167C515.36,95.333,506.483,103.667,502.044,111.333C497.605,119,497.605,126,497.605,129.5L497.605,133" id="L_User_SDK_0" class="edge-thickness-normal edge-pattern-solid edge-thickness-normal edge-pattern-solid flowchart-link" style=";" data-edge="true" data-et="edge" data-id="L_User_SDK_0" data-points="W3sieCI6NTI0LjIzNzQ1NDkyNzg4NDYsInkiOjg3fSx7IngiOjQ5Ny42MDU0Njg3NSwieSI6MTEyfSx7IngiOjQ5Ny42MDU0Njg3NSwieSI6MTM3fV0=" marker-end="url(#my-svg_flowchart-v2-pointEnd)"/><path d="M497.605,191L497.605,195.167C497.605,199.333,497.605,207.667,501.558,215.544C505.511,223.421,513.416,230.842,517.368,234.552L521.321,238.262" id="L_SDK_API_GW_0" class="edge-thickness-normal edge-pattern-solid edge-thickness-normal edge-pattern-solid flowchart-link" style=";" data-edge="true" data-et="edge" data-id="L_SDK_API_GW_0" data-points="W3sieCI6NDk3LjYwNTQ2ODc1LCJ5IjoxOTF9LHsieCI6NDk3LjYwNTQ2ODc1LCJ5IjoyMTZ9LHsieCI6NTI0LjIzNzQ1NDkyNzg4NDYsInkiOjI0MX1d" marker-end="url(#my-svg_flowchart-v2-pointEnd)"/><path d="M553,295L553,299.167C553,303.333,553,311.667,553,320C553,328.333,553,336.667,553,345C553,353.333,553,361.667,553,369.333C553,377,553,384,553,387.5L553,391" id="L_API_GW_Orchestrator_0" class="edge-thickness-normal edge-pattern-solid edge-thickness-normal edge-pattern-solid flowchart-link" style=";" data-edge="true" data-et="edge" data-id="L_API_GW_Orchestrator_0" data-points="W3sieCI6NTUzLCJ5IjoyOTV9LHsieCI6NTUzLCJ5IjozMjB9LHsieCI6NTUzLCJ5IjozNDV9LHsieCI6NTUzLCJ5IjozNzB9LHsieCI6NTUzLCJ5IjozOTV9XQ==" marker-end="url(#my-svg_flowchart-v2-pointEnd)"/><path d="M657.711,442.28L685.007,447.567C712.303,452.853,766.896,463.427,794.192,472.88C821.488,482.333,821.488,490.667,821.488,499C821.488,507.333,821.488,515.667,821.488,528.5C821.488,541.333,821.488,558.667,821.488,576C821.488,593.333,821.488,610.667,821.488,623.5C821.488,636.333,821.488,644.667,817.916,652.521C814.344,660.376,807.199,667.751,803.627,671.439L800.054,675.127" id="L_Orchestrator_CA_0" class="edge-thickness-normal edge-pattern-solid edge-thickness-normal edge-pattern-solid flowchart-link" style=";" data-edge="true" data-et="edge" data-id="L_Orchestrator_CA_0" data-points="W3sieCI6NjU3LjcxMDkzNzUsInkiOjQ0Mi4yODAwOTgzNTE1OTI0fSx7IngiOjgyMS40ODgyODEyNSwieSI6NDc0fSx7IngiOjgyMS40ODgyODEyNSwieSI6NDk5fSx7IngiOjgyMS40ODgyODEyNSwieSI6NTI0fSx7IngiOjgyMS40ODgyODEyNSwieSI6NTc2fSx7IngiOjgyMS40ODgyODEyNSwieSI6NjI4fSx7IngiOjgyMS40ODgyODEyNSwieSI6NjUzfSx7IngiOjc5Ny4yNzEwNTcxMjg5MDYyLCJ5Ijo2Nzh9XQ==" marker-end="url(#my-svg_flowchart-v2-pointEnd)"/><path d="M553,449L553,453.167C553,457.333,553,465.667,553,474C553,482.333,553,490.667,553,499C553,507.333,553,515.667,553,528.5C553,541.333,553,558.667,553,576C553,593.333,553,610.667,553,623.5C553,636.333,553,644.667,553,659.5C553,674.333,553,695.667,553,717C553,738.333,553,759.667,552.452,773.841C551.904,788.016,550.808,795.032,550.259,798.54L549.711,802.048" id="L_Orchestrator_COS_0" class="edge-thickness-normal edge-pattern-solid edge-thickness-normal edge-pattern-solid flowchart-link" style=";" data-edge="true" data-et="edge" data-id="L_Orchestrator_COS_0" data-points="W3sieCI6NTUzLCJ5Ijo0NDl9LHsieCI6NTUzLCJ5Ijo0NzR9LHsieCI6NTUzLCJ5Ijo0OTl9LHsieCI6NTUzLCJ5Ijo1MjR9LHsieCI6NTUzLCJ5Ijo1NzZ9LHsieCI6NTUzLCJ5Ijo2Mjh9LHsieCI6NTUzLCJ5Ijo2NTN9LHsieCI6NTUzLCJ5Ijo3MTd9LHsieCI6NTUzLCJ5Ijo3ODF9LHsieCI6NTQ5LjA5Mzc1LCJ5Ijo4MDZ9XQ==" marker-end="url(#my-svg_flowchart-v2-pointEnd)"/><path d="M462.135,449L448.112,453.167C434.09,457.333,406.045,465.667,392.022,474C378,482.333,378,490.667,378,499C378,507.333,378,515.667,378,528.5C378,541.333,378,558.667,378,576C378,593.333,378,610.667,378,623.5C378,636.333,378,644.667,378,659.5C378,674.333,378,695.667,378,717C378,738.333,378,759.667,378,781C378,802.333,378,823.667,378,845C378,866.333,378,887.667,377.452,901.841C376.904,916.016,375.808,923.032,375.259,926.54L374.711,930.048" id="L_Orchestrator_CME_0" class="edge-thickness-normal edge-pattern-solid edge-thickness-normal edge-pattern-solid flowchart-link" style=";" data-edge="true" data-et="edge" data-id="L_Orchestrator_CME_0" data-points="W3sieCI6NDYyLjEzNDYxNTM4NDYxNTM2LCJ5Ijo0NDl9LHsieCI6Mzc4LCJ5Ijo0NzR9LHsieCI6Mzc4LCJ5Ijo0OTl9LHsieCI6Mzc4LCJ5Ijo1MjR9LHsieCI6Mzc4LCJ5Ijo1NzZ9LHsieCI6Mzc4LCJ5Ijo2Mjh9LHsieCI6Mzc4LCJ5Ijo2NTN9LHsieCI6Mzc4LCJ5Ijo3MTd9LHsieCI6Mzc4LCJ5Ijo3ODF9LHsieCI6Mzc4LCJ5Ijo4NDV9LHsieCI6Mzc4LCJ5Ijo5MDl9LHsieCI6Mzc0LjA5Mzc1LCJ5Ijo5MzR9XQ==" marker-end="url(#my-svg_flowchart-v2-pointEnd)"/><path d="M448.289,437.557L407.408,443.631C366.526,449.705,284.763,461.852,243.882,472.093C203,482.333,203,490.667,203,499C203,507.333,203,515.667,203,528.5C203,541.333,203,558.667,203,576C203,593.333,203,610.667,203,623.5C203,636.333,203,644.667,203,659.5C203,674.333,203,695.667,203,717C203,738.333,203,759.667,203,781C203,802.333,203,823.667,203,845C203,866.333,203,887.667,203,909C203,930.333,203,951.667,203,973C203,994.333,203,1015.667,202.452,1029.841C201.904,1044.016,200.808,1051.032,200.259,1054.54L199.711,1058.048" id="L_Orchestrator_SRE_0" class="edge-thickness-normal edge-pattern-solid edge-thickness-normal edge-pattern-solid flowchart-link" style=";" data-edge="true" data-et="edge" data-id="L_Orchestrator_SRE_0" data-points="W3sieCI6NDQ4LjI4OTA2MjUsInkiOjQzNy41NTcwNTM1NzE0Mjg2fSx7IngiOjIwMywieSI6NDc0fSx7IngiOjIwMywieSI6NDk5fSx7IngiOjIwMywieSI6NTI0fSx7IngiOjIwMywieSI6NTc2fSx7IngiOjIwMywieSI6NjI4fSx7IngiOjIwMywieSI6NjUzfSx7IngiOjIwMywieSI6NzE3fSx7IngiOjIwMywieSI6NzgxfSx7IngiOjIwMywieSI6ODQ1fSx7IngiOjIwMywieSI6OTA5fSx7IngiOjIwMywieSI6OTczfSx7IngiOjIwMywieSI6MTAzN30seyJ4IjoxOTkuMDkzNzUsInkiOjEwNjJ9XQ==" marker-end="url(#my-svg_flowchart-v2-pointEnd)"/><path d="M629.492,745.79L602.993,751.658C576.495,757.526,523.497,769.263,501.219,778.857C478.941,788.451,487.381,795.902,491.601,799.627L495.822,803.353" id="L_CA_COS_0" class="edge-thickness-normal edge-pattern-solid edge-thickness-normal edge-pattern-solid flowchart-link" style=";" data-edge="true" data-et="edge" data-id="L_CA_COS_0" data-points="W3sieCI6NjI5LjQ5MjE4NzUsInkiOjc0NS43ODk3MDU2MDQwNjU4fSx7IngiOjQ3MC41LCJ5Ijo3ODF9LHsieCI6NDk4LjgyMDMxMjUsInkiOjgwNn1d" marker-end="url(#my-svg_flowchart-v2-pointEnd)"/><path d="M413,878.616L393.417,883.68C373.833,888.744,334.667,898.872,319.304,907.661C303.941,916.451,312.381,923.902,316.601,927.627L320.822,931.353" id="L_COS_CME_0" class="edge-thickness-normal edge-pattern-solid edge-thickness-normal edge-pattern-solid flowchart-link" style=";" data-edge="true" data-et="edge" data-id="L_COS_CME_0" data-points="W3sieCI6NDEzLCJ5Ijo4NzguNjE2MTYxNjE2MTYxN30seyJ4IjoyOTUuNSwieSI6OTA5fSx7IngiOjMyMy44MjAzMTI1LCJ5Ijo5MzR9XQ==" marker-end="url(#my-svg_flowchart-v2-pointEnd)"/><path d="M238,1006.616L218.417,1011.68C198.833,1016.744,159.667,1026.872,144.304,1035.661C128.941,1044.451,137.381,1051.902,141.601,1055.627L145.822,1059.353" id="L_CME_SRE_0" class="edge-thickness-normal edge-pattern-solid edge-thickness-normal edge-pattern-solid flowchart-link" style=";" data-edge="true" data-et="edge" data-id="L_CME_SRE_0" data-points="W3sieCI6MjM4LCJ5IjoxMDA2LjYxNjE2MTYxNjE2MTd9LHsieCI6MTIwLjUsInkiOjEwMzd9LHsieCI6MTQ4LjgyMDMxMjUsInkiOjEwNjJ9XQ==" marker-end="url(#my-svg_flowchart-v2-pointEnd)"/><path d="M759.492,756L759.492,760.167C759.492,764.333,759.492,772.667,759.492,787.5C759.492,802.333,759.492,823.667,759.492,845C759.492,866.333,759.492,887.667,759.492,909C759.492,930.333,759.492,951.667,759.492,973C759.492,994.333,759.492,1015.667,759.492,1037C759.492,1058.333,759.492,1079.667,759.492,1101C759.492,1122.333,759.492,1143.667,759.492,1158.5C759.492,1173.333,759.492,1181.667,759.492,1190C759.492,1198.333,759.492,1206.667,759.492,1215C759.492,1223.333,759.492,1231.667,725.361,1241.577C691.229,1251.488,622.966,1262.976,588.834,1268.72L554.702,1274.464" id="L_CA_GraphRAG_0" class="edge-thickness-normal edge-pattern-solid edge-thickness-normal edge-pattern-solid flowchart-link" style=";" data-edge="true" data-et="edge" data-id="L_CA_GraphRAG_0" data-points="W3sieCI6NzU5LjQ5MjE4NzUsInkiOjc1Nn0seyJ4Ijo3NTkuNDkyMTg3NSwieSI6NzgxfSx7IngiOjc1OS40OTIxODc1LCJ5Ijo4NDV9LHsieCI6NzU5LjQ5MjE4NzUsInkiOjkwOX0seyJ4Ijo3NTkuNDkyMTg3NSwieSI6OTczfSx7IngiOjc1OS40OTIxODc1LCJ5IjoxMDM3fSx7IngiOjc1OS40OTIxODc1LCJ5IjoxMTAxfSx7IngiOjc1OS40OTIxODc1LCJ5IjoxMTY1fSx7IngiOjc1OS40OTIxODc1LCJ5IjoxMTkwfSx7IngiOjc1OS40OTIxODc1LCJ5IjoxMjE1fSx7IngiOjc1OS40OTIxODc1LCJ5IjoxMjQwfSx7IngiOjU1MC43NTc4MTI1LCJ5IjoxMjc1LjEyNzcwODUyODIyOTN9XQ==" marker-end="url(#my-svg_flowchart-v2-pointEnd)"/><path d="M543,884L543,888.167C543,892.333,543,900.667,543,915.5C543,930.333,543,951.667,543,973C543,994.333,543,1015.667,543,1037C543,1058.333,543,1079.667,543,1101C543,1122.333,543,1143.667,543,1158.5C543,1173.333,543,1181.667,543,1190C543,1198.333,543,1206.667,543,1215C543,1223.333,543,1231.667,536.169,1239.673C529.339,1247.68,515.677,1255.36,508.846,1259.2L502.016,1263.04" id="L_COS_GraphRAG_0" class="edge-thickness-normal edge-pattern-solid edge-thickness-normal edge-pattern-solid flowchart-link" style=";" data-edge="true" data-et="edge" data-id="L_COS_GraphRAG_0" data-points="W3sieCI6NTQzLCJ5Ijo4ODR9LHsieCI6NTQzLCJ5Ijo5MDl9LHsieCI6NTQzLCJ5Ijo5NzN9LHsieCI6NTQzLCJ5IjoxMDM3fSx7IngiOjU0MywieSI6MTEwMX0seyJ4Ijo1NDMsInkiOjExNjV9LHsieCI6NTQzLCJ5IjoxMTkwfSx7IngiOjU0MywieSI6MTIxNX0seyJ4Ijo1NDMsInkiOjEyNDB9LHsieCI6NDk4LjUyODg0NjE1Mzg0NjEzLCJ5IjoxMjY1fV0=" marker-end="url(#my-svg_flowchart-v2-pointEnd)"/><path d="M368,1012L368,1016.167C368,1020.333,368,1028.667,368,1043.5C368,1058.333,368,1079.667,368,1101C368,1122.333,368,1143.667,368,1158.5C368,1173.333,368,1181.667,368,1190C368,1198.333,368,1206.667,368,1215C368,1223.333,368,1231.667,374.047,1239.645C380.093,1247.622,392.186,1255.245,398.233,1259.056L404.28,1262.867" id="L_CME_GraphRAG_0" class="edge-thickness-normal edge-pattern-solid edge-thickness-normal edge-pattern-solid flowchart-link" style=";" data-edge="true" data-et="edge" data-id="L_CME_GraphRAG_0" data-points="W3sieCI6MzY4LCJ5IjoxMDEyfSx7IngiOjM2OCwieSI6MTAzN30seyJ4IjozNjgsInkiOjExMDF9LHsieCI6MzY4LCJ5IjoxMTY1fSx7IngiOjM2OCwieSI6MTE5MH0seyJ4IjozNjgsInkiOjEyMTV9LHsieCI6MzY4LCJ5IjoxMjQwfSx7IngiOjQwNy42NjM0NjE1Mzg0NjE1NSwieSI6MTI2NX1d" marker-end="url(#my-svg_flowchart-v2-pointEnd)"/><path d="M193,1140L193,1144.167C193,1148.333,193,1156.667,193,1165C193,1173.333,193,1181.667,193,1190C193,1198.333,193,1206.667,193,1215C193,1223.333,193,1231.667,218.554,1240.994C244.107,1250.321,295.214,1260.641,320.768,1265.802L346.321,1270.962" id="L_SRE_GraphRAG_0" class="edge-thickness-normal edge-pattern-solid edge-thickness-normal edge-pattern-solid flowchart-link" style=";" data-edge="true" data-et="edge" data-id="L_SRE_GraphRAG_0" data-points="W3sieCI6MTkzLCJ5IjoxMTQwfSx7IngiOjE5MywieSI6MTE2NX0seyJ4IjoxOTMsInkiOjExOTB9LHsieCI6MTkzLCJ5IjoxMjE1fSx7IngiOjE5MywieSI6MTI0MH0seyJ4IjozNTAuMjQyMTg3NSwieSI6MTI3MS43NTM3NjIxMzU5MjI0fV0=" marker-end="url(#my-svg_flowchart-v2-pointEnd)"/><path d="M350.544,1319L335.119,1323.167C319.693,1327.333,288.843,1335.667,273.417,1343.333C257.992,1351,257.992,1358,257.992,1361.5L257.992,1365" id="L_GraphRAG_Neo4j_0" class="edge-thickness-normal edge-pattern-solid edge-thickness-normal edge-pattern-solid flowchart-link" style=";" data-edge="true" data-et="edge" data-id="L_GraphRAG_Neo4j_0" data-points="W3sieCI6MzUwLjU0NDAyMDQzMjY5MjMsInkiOjEzMTl9LHsieCI6MjU3Ljk5MjE4NzUsInkiOjEzNDR9LHsieCI6MjU3Ljk5MjE4NzUsInkiOjEzNjl9XQ==" marker-end="url(#my-svg_flowchart-v2-pointEnd)"/><path d="M550.758,1317.247L568.464,1321.706C586.169,1326.165,621.581,1335.082,639.286,1345.041C656.992,1355,656.992,1366,656.992,1371.5L656.992,1377" id="L_GraphRAG_Postgres_0" class="edge-thickness-normal edge-pattern-solid edge-thickness-normal edge-pattern-solid flowchart-link" style=";" data-edge="true" data-et="edge" data-id="L_GraphRAG_Postgres_0" data-points="W3sieCI6NTUwLjc1NzgxMjUsInkiOjEzMTcuMjQ3NDc0NTU2MzkyfSx7IngiOjY1Ni45OTIxODc1LCJ5IjoxMzQ0fSx7IngiOjY1Ni45OTIxODc1LCJ5IjoxMzgxfV0=" marker-end="url(#my-svg_flowchart-v2-pointEnd)"/><path d="M628.027,449L639.605,453.167C651.183,457.333,674.34,465.667,685.918,474C697.496,482.333,697.496,490.667,697.496,499C697.496,507.333,697.496,515.667,697.496,523.333C697.496,531,697.496,538,697.496,541.5L697.496,545" id="L_Orchestrator_Policy_0" class="edge-thickness-normal edge-pattern-solid edge-thickness-normal edge-pattern-solid flowchart-link" style=";" data-edge="true" data-et="edge" data-id="L_Orchestrator_Policy_0" data-points="W3sieCI6NjI4LjAyNjgxNzkwODY1MzgsInkiOjQ0OX0seyJ4Ijo2OTcuNDk2MDkzNzUsInkiOjQ3NH0seyJ4Ijo2OTcuNDk2MDkzNzUsInkiOjQ5OX0seyJ4Ijo2OTcuNDk2MDkzNzUsInkiOjUyNH0seyJ4Ijo2OTcuNDk2MDkzNzUsInkiOjU0OX1d" marker-end="url(#my-svg_flowchart-v2-pointEnd)"/><path d="M1059.32,872L1059.32,878.167C1059.32,884.333,1059.32,896.667,1059.32,908.333C1059.32,920,1059.32,931,1059.32,936.5L1059.32,942" id="L_Prov_CI_0" class="edge-thickness-normal edge-pattern-solid edge-thickness-normal edge-pattern-solid flowchart-link" style=";" data-edge="true" data-et="edge" data-id="L_Prov_CI_0" data-points="W3sieCI6MTA1OS4zMjAzMTI1LCJ5Ijo4NzJ9LHsieCI6MTA1OS4zMjAzMTI1LCJ5Ijo5MDl9LHsieCI6MTA1OS4zMjAzMTI1LCJ5Ijo5NDZ9XQ==" marker-end="url(#my-svg_flowchart-v2-pointEnd)"/><path d="M697.496,603L697.496,607.167C697.496,611.333,697.496,619.667,697.496,627.333C697.496,635,697.496,642,697.496,645.5L697.496,649" id="L_Policy_Execution_0" class="edge-thickness-normal edge-pattern-solid edge-thickness-normal edge-pattern-solid flowchart-link" style=";" data-edge="true" data-et="edge" data-id="L_Policy_Execution_0" data-points="W3sieCI6Njk3LjQ5NjA5Mzc1LCJ5Ijo2MDN9LHsieCI6Njk3LjQ5NjA5Mzc1LCJ5Ijo2Mjh9LHsieCI6Njk3LjQ5NjA5Mzc1LCJ5Ijo2NTN9LHsieCI6NzIxLjcxMzMxNzg3MTA5MzgsInkiOjY3OH1d" marker-end="url(#my-svg_flowchart-v2-pointEnd)"/><path d="M924.492,793.705L964.15,816.037" id="L_Execution_Prov_0" class="edge-thickness-normal edge-pattern-solid edge-thickness-normal edge-pattern-solid flowchart-link" style=";" data-edge="true" data-et="edge" data-id="L_Execution_Prov_0" data-points="W3sieCI6ODA5Ljc2NTYyNSwieSI6NzU2fSx7IngiOjg0MS45OTIxODc1LCJ5Ijo3ODF9LHsieCI6OTY3LjYzNTAwOTc2NTYyNSwieSI6ODE4fV0=" marker-end="url(#my-svg_flowchart-v2-pointEnd)"/></g><g class="edgeLabels"><g class="edgeLabel"><g class="label" data-id="L_User_API_GW_0" transform="translate(0, 0)"><foreignObject width="0" height="0"><div xmlns="http://www.w3.org/1999/xhtml" class="labelBkg" style="display: table-cell; white-space: nowrap; line-height: 1.5; max-width: 200px; text-align: center;"><span class="edgeLabel"></span></div></foreignObject></g></g><g class="edgeLabel"><g class="label" data-id="L_User_SDK_0" transform="translate(0, 0)"><foreignObject width="0" height="0"><div xmlns="http://www.w3.org/1999/xhtml" class="labelBkg" style="display: table-cell; white-space: nowrap; line-height: 1.5; max-width: 200px; text-align: center;"><span class="edgeLabel"></span></div></foreignObject></g></g><g class="edgeLabel"><g class="label" data-id="L_SDK_API_GW_0" transform="translate(0, 0)"><foreignObject width="0" height="0"><div xmlns="http://www.w3.org/1999/xhtml" class="labelBkg" style="display: table-cell; white-space: nowrap; line-height: 1.5; max-width: 200px; text-align: center;"><span class="edgeLabel"></span></div></foreignObject></g></g><g class="edgeLabel"><g class="label" data-id="L_API_GW_Orchestrator_0" transform="translate(0, 0)"><foreignObject width="0" height="0"><div xmlns="http://www.w3.org/1999/xhtml" class="labelBkg" style="display: table-cell; white-space: nowrap; line-height: 1.5; max-width: 200px; text-align: center;"><span class="edgeLabel"></span></div></foreignObject></g></g><g class="edgeLabel"><g class="label" data-id="L_Orchestrator_CA_0" transform="translate(0, 0)"><foreignObject width="0" height="0"><div xmlns="http://www.w3.org/1999/xhtml" class="labelBkg" style="display: table-cell; white-space: nowrap; line-height: 1.5; max-width: 200px; text-align: center;"><span class="edgeLabel"></span></div></foreignObject></g></g><g class="edgeLabel"><g class="label" data-id="L_Orchestrator_COS_0" transform="translate(0, 0)"><foreignObject width="0" height="0"><div xmlns="http://www.w3.org/1999/xhtml" class="labelBkg" style="display: table-cell; white-space: nowrap; line-height: 1.5; max-width: 200px; text-align: center;"><span class="edgeLabel"></span></div></foreignObject></g></g><g class="edgeLabel"><g class="label" data-id="L_Orchestrator_CME_0" transform="translate(0, 0)"><foreignObject width="0" height="0"><div xmlns="http://www.w3.org/1999/xhtml" class="labelBkg" style="display: table-cell; white-space: nowrap; line-height: 1.5; max-width: 200px; text-align: center;"><span class="edgeLabel"></span></div></foreignObject></g></g><g class="edgeLabel"><g class="label" data-id="L_Orchestrator_SRE_0" transform="translate(0, 0)"><foreignObject width="0" height="0"><div xmlns="http://www.w3.org/1999/xhtml" class="labelBkg" style="display: table-cell; white-space: nowrap; line-height: 1.5; max-width: 200px; text-align: center;"><span class="edgeLabel"></span></div></foreignObject></g></g><g class="edgeLabel"><g class="label" data-id="L_CA_COS_0" transform="translate(0, 0)"><foreignObject width="0" height="0"><div xmlns="http://www.w3.org/1999/xhtml" class="labelBkg" style="display: table-cell; white-space: nowrap; line-height: 1.5; max-width: 200px; text-align: center;"><span class="edgeLabel"></span></div></foreignObject></g></g><g class="edgeLabel"><g class="label" data-id="L_COS_CME_0" transform="translate(0, 0)"><foreignObject width="0" height="0"><div xmlns="http://www.w3.org/1999/xhtml" class="labelBkg" style="display: table-cell; white-space: nowrap; line-height: 1.5; max-width: 200px; text-align: center;"><span class="edgeLabel"></span></div></foreignObject></g></g><g class="edgeLabel"><g class="label" data-id="L_CME_SRE_0" transform="translate(0, 0)"><foreignObject width="0" height="0"><div xmlns="http://www.w3.org/1999/xhtml" class="labelBkg" style="display: table-cell; white-space: nowrap; line-height: 1.5; max-width: 200px; text-align: center;"><span class="edgeLabel"></span></div></foreignObject></g></g><g class="edgeLabel"><g class="label" data-id="L_CA_GraphRAG_0" transform="translate(0, 0)"><foreignObject width="0" height="0"><div xmlns="http://www.w3.org/1999/xhtml" class="labelBkg" style="display: table-cell; white-space: nowrap; line-height: 1.5; max-width: 200px; text-align: center;"><span class="edgeLabel"></span></div></foreignObject></g></g><g class="edgeLabel"><g class="label" data-id="L_COS_GraphRAG_0" transform="translate(0, 0)"><foreignObject width="0" height="0"><div xmlns="http://www.w3.org/1999/xhtml" class="labelBkg" style="display: table-cell; white-space: nowrap; line-height: 1.5; max-width: 200px; text-align: center;"><span class="edgeLabel"></span></div></foreignObject></g></g><g class="edgeLabel"><g class="label" data-id="L_CME_GraphRAG_0" transform="translate(0, 0)"><foreignObject width="0" height="0"><div xmlns="http://www.w3.org/1999/xhtml" class="labelBkg" style="display: table-cell; white-space: nowrap; line-height: 1.5; max-width: 200px; text-align: center;"><span class="edgeLabel"></span></div></foreignObject></g></g><g class="edgeLabel"><g class="label" data-id="L_SRE_GraphRAG_0" transform="translate(0, 0)"><foreignObject width="0" height="0"><div xmlns="http://www.w3.org/1999/xhtml" class="labelBkg" style="display: table-cell; white-space: nowrap; line-height: 1.5; max-width: 200px; text-align: center;"><span class="edgeLabel"></span></div></foreignObject></g></g><g class="edgeLabel"><g class="label" data-id="L_GraphRAG_Neo4j_0" transform="translate(0, 0)"><foreignObject width="0" height="0"><div xmlns="http://www.w3.org/1999/xhtml" class="labelBkg" style="display: table-cell; white-space: nowrap; line-height: 1.5; max-width: 200px; text-align: center;"><span class="edgeLabel"></span></div></foreignObject></g></g><g class="edgeLabel"><g class="label" data-id="L_GraphRAG_Postgres_0" transform="translate(0, 0)"><foreignObject width="0" height="0"><div xmlns="http://www.w3.org/1999/xhtml" class="labelBkg" style="display: table-cell; white-space: nowrap; line-height: 1.5; max-width: 200px; text-align: center;"><span class="edgeLabel"></span></div></foreignObject></g></g><g class="edgeLabel"><g class="label" data-id="L_Orchestrator_Policy_0" transform="translate(0, 0)"><foreignObject width="0" height="0"><div xmlns="http://www.w3.org/1999/xhtml" class="labelBkg" style="display: table-cell; white-space: nowrap; line-height: 1.5; max-width: 200px; text-align: center;"><span class="edgeLabel"></span></div></foreignObject></g></g><g class="edgeLabel"><g class="label" data-id="L_Prov_CI_0" transform="translate(0, 0)"><foreignObject width="0" height="0"><div xmlns="http://www.w3.org/1999/xhtml" class="labelBkg" style="display: table-cell; white-space: nowrap; line-height: 1.5; max-width: 200px; text-align: center;"><span class="edgeLabel"></span></div></foreignObject></g></g><g class="edgeLabel"><g class="label" data-id="L_Policy_Execution_0" transform="translate(0, 0)"><foreignObject width="0" height="0"><div xmlns="http://www.w3.org/1999/xhtml" class="labelBkg" style="display: table-cell; white-space: nowrap; line-height: 1.5; max-width: 200px; text-align: center;"><span class="edgeLabel"></span></div></foreignObject></g></g><g class="edgeLabel"><g class="label" data-id="L_Execution_Prov_0" transform="translate(0, 0)"><foreignObject width="0" height="0"><div xmlns="http://www.w3.org/1999/xhtml" class="labelBkg" style="display: table-cell; white-space: nowrap; line-height: 1.5; max-width: 200px; text-align: center;"><span class="edgeLabel"></span></div></foreignObject></g></g></g><g class="nodes"><g class="node default api" id="flowchart-User-0" transform="translate(553, 60)"><rect class="basic label-container" style="fill:#dbeafe !important;stroke:#2563eb !important;stroke-width:2px !important" x="-99.796875" y="-27" width="199.59375" height="54"/><g class="label" style="" transform="translate(-69.796875, -12)"><rect/><foreignObject width="139.59375" height="24"><div xmlns="http://www.w3.org/1999/xhtml" style="display: table-cell; white-space: nowrap; line-height: 1.5; max-width: 200px; text-align: center;"><span class="nodeLabel"><p>User / UI / Operator</p></span></div></foreignObject></g></g><g class="node default api" id="flowchart-API_GW-1" transform="translate(553, 268)"><rect class="basic label-container" style="fill:#dbeafe !important;stroke:#2563eb !important;stroke-width:2px !important" x="-76.6875" y="-27" width="153.375" height="54"/><g class="label" style="" transform="translate(-46.6875, -12)"><rect/><foreignObject width="93.375" height="24"><div xmlns="http://www.w3.org/1999/xhtml" style="display: table-cell; white-space: nowrap; line-height: 1.5; max-width: 200px; text-align: center;"><span class="nodeLabel"><p>API Gateway</p></span></div></foreignObject></g></g><g class="node default api" id="flowchart-SDK-2" transform="translate(497.60546875, 164)"><rect class="basic label-container" style="fill:#dbeafe !important;stroke:#2563eb !important;stroke-width:2px !important" x="-75.7890625" y="-27" width="151.578125" height="54"/><g class="label" style="" transform="translate(-45.7890625, -12)"><rect/><foreignObject width="91.578125" height="24"><div xmlns="http://www.w3.org/1999/xhtml" style="display: table-cell; white-space: nowrap; line-height: 1.5; max-width: 200px; text-align: center;"><span class="nodeLabel"><p>Summit SDK</p></span></div></foreignObject></g></g><g class="node default acp" id="flowchart-Orchestrator-9" transform="translate(553, 422)"><rect class="basic label-container" style="fill:#fef3c7 !important;stroke:#d97706 !important;stroke-width:2px !important" x="-104.7109375" y="-27" width="209.421875" height="54"/><g class="label" style="" transform="translate(-74.7109375, -12)"><rect/><foreignObject width="149.421875" height="24"><div xmlns="http://www.w3.org/1999/xhtml" style="display: table-cell; white-space: nowrap; line-height: 1.5; max-width: 200px; text-align: center;"><span class="nodeLabel"><p>Control Plane Router</p></span></div></foreignObject></g></g><g class="node default exec" id="flowchart-CA-12" transform="translate(759.4921875, 717)"><rect class="basic label-container" style="fill:#d1fae5 !important;stroke:#059669 !important;stroke-width:2px !important" x="-130" y="-39" width="260" height="78"/><g class="label" style="" transform="translate(-100, -24)"><rect/><foreignObject width="200" height="48"><div xmlns="http://www.w3.org/1999/xhtml" style="display: table; white-space: break-spaces; line-height: 1.5; max-width: 200px; text-align: center; width: 200px;"><span class="nodeLabel"><p>Creative Agents (Tool Orchestration)</p></span></div></foreignObject></g></g><g class="node default exec" id="flowchart-COS-13" transform="translate(543, 845)"><rect class="basic label-container" style="fill:#d1fae5 !important;stroke:#059669 !important;stroke-width:2px !important" x="-130" y="-39" width="260" height="78"/><g class="label" style="" transform="translate(-100, -24)"><rect/><foreignObject width="200" height="48"><div xmlns="http://www.w3.org/1999/xhtml" style="display: table; white-space: break-spaces; line-height: 1.5; max-width: 200px; text-align: center; width: 200px;"><span class="nodeLabel"><p>Creative OS (Workflow DAGs)</p></span></div></foreignObject></g></g><g class="node default exec" id="flowchart-CME-14" transform="translate(368, 973)"><rect class="basic label-container" style="fill:#d1fae5 !important;stroke:#059669 !important;stroke-width:2px !important" x="-130" y="-39" width="260" height="78"/><g class="label" style="" transform="translate(-100, -24)"><rect/><foreignObject width="200" height="48"><div xmlns="http://www.w3.org/1999/xhtml" style="display: table; white-space: break-spaces; line-height: 1.5; max-width: 200px; text-align: center; width: 200px;"><span class="nodeLabel"><p>Cognitive Media Engine (World Model Generation)</p></span></div></foreignObject></g></g><g class="node default exec" id="flowchart-SRE-15" transform="translate(193, 1101)"><rect class="basic label-container" style="fill:#d1fae5 !important;stroke:#059669 !important;stroke-width:2px !important" x="-130" y="-39" width="260" height="78"/><g class="label" style="" transform="translate(-100, -24)"><rect/><foreignObject width="200" height="48"><div xmlns="http://www.w3.org/1999/xhtml" style="display: table; white-space: break-spaces; line-height: 1.5; max-width: 200px; text-align: center; width: 200px;"><span class="nodeLabel"><p>Synthetic Reality Engine (Simulation Platform)</p></span></div></foreignObject></g></g><g class="node default mem" id="flowchart-GraphRAG-30" transform="translate(450.5, 1292)"><rect class="basic label-container" style="fill:#f3e8ff !important;stroke:#9333ea !important;stroke-width:2px !important" x="-100.2578125" y="-27" width="200.515625" height="54"/><g class="label" style="" transform="translate(-70.2578125, -12)"><rect/><foreignObject width="140.515625" height="24"><div xmlns="http://www.w3.org/1999/xhtml" style="display: table-cell; white-space: nowrap; line-height: 1.5; max-width: 200px; text-align: center;"><span class="nodeLabel"><p>GraphRAG Pipeline</p></span></div></foreignObject></g></g><g class="node default mem" id="flowchart-Neo4j-31" transform="translate(257.9921875, 1408)"><rect class="basic label-container" style="fill:#f3e8ff !important;stroke:#9333ea !important;stroke-width:2px !important" x="-130" y="-39" width="260" height="78"/><g class="label" style="" transform="translate(-100, -24)"><rect/><foreignObject width="200" height="48"><div xmlns="http://www.w3.org/1999/xhtml" style="display: table; white-space: break-spaces; line-height: 1.5; max-width: 200px; text-align: center; width: 200px;"><span class="nodeLabel"><p>Neo4j (Ontology/World State)</p></span></div></foreignObject></g></g><g class="node default mem" id="flowchart-Postgres-32" transform="translate(656.9921875, 1408)"><rect class="basic label-container" style="fill:#f3e8ff !important;stroke:#9333ea !important;stroke-width:2px !important" x="-122.03125" y="-27" width="244.0625" height="54"/><g class="label" style="" transform="translate(-92.03125, -12)"><rect/><foreignObject width="184.0625" height="24"><div xmlns="http://www.w3.org/1999/xhtml" style="display: table-cell; white-space: nowrap; line-height: 1.5; max-width: 200px; text-align: center;"><span class="nodeLabel"><p>Postgres (Metrics/Ledger)</p></span></div></foreignObject></g></g><g class="node default gov" id="flowchart-Policy-45" transform="translate(697.49609375, 576)"><rect class="basic label-container" style="fill:#fee2e2 !important;stroke:#dc2626 !important;stroke-width:2px !important" x="-88.9921875" y="-27" width="177.984375" height="54"/><g class="label" style="" transform="translate(-58.9921875, -12)"><rect/><foreignObject width="117.984375" height="24"><div xmlns="http://www.w3.org/1999/xhtml" style="display: table-cell; white-space: nowrap; line-height: 1.5; max-width: 200px; text-align: center;"><span class="nodeLabel"><p>OPA Policy Gate</p></span></div></foreignObject></g></g><g class="node default gov" id="flowchart-Prov-46" transform="translate(1059.3203125, 845)"><rect class="basic label-container" style="fill:#fee2e2 !important;stroke:#dc2626 !important;stroke-width:2px !important" x="-99.828125" y="-27" width="199.65625" height="54"/><g class="label" style="" transform="translate(-69.828125, -12)"><rect/><foreignObject width="139.65625" height="24"><div xmlns="http://www.w3.org/1999/xhtml" style="display: table-cell; white-space: nowrap; line-height: 1.5; max-width: 200px; text-align: center;"><span class="nodeLabel"><p>Provenance Ledger</p></span></div></foreignObject></g></g><g class="node default gov" id="flowchart-CI-47" transform="translate(1059.3203125, 973)"><rect class="basic label-container" style="fill:#fee2e2 !important;stroke:#dc2626 !important;stroke-width:2px !important" x="-88.546875" y="-27" width="177.09375" height="54"/><g class="label" style="" transform="translate(-58.546875, -12)"><rect/><foreignObject width="117.09375" height="24"><div xmlns="http://www.w3.org/1999/xhtml" style="display: table-cell; white-space: nowrap; line-height: 1.5; max-width: 200px; text-align: center;"><span class="nodeLabel"><p>CI/CD Validation</p></span></div></foreignObject></g></g></g></g></g></svg>