<svg xmlns="http://www.w3.org/2000/svg" viewBox="0 0 800 500">
  <!-- Definitions -->
  <defs>
    <marker id="arrow" markerWidth="10" markerHeight="10" refX="9" refY="3" orient="auto" markerUnits="strokeWidth">
      <path d="M0,0 L0,6 L9,3 z" fill="#333" />
    </marker>
  </defs>

  <!-- Background -->
  <rect width="800" height="500" fill="#f8f9fa" />

  <!-- Stages -->
  <g transform="translate(50, 200)">
    <!-- 1. Source -->
    <rect x="0" y="0" width="80" height="60" rx="5" ry="5" fill="#e1f5fe" stroke="#0277bd" stroke-width="2" />
    <text x="40" y="35" font-family="Arial" font-size="12" text-anchor="middle">Source</text>

    <!-- Arrow -->
    <line x1="80" y1="30" x2="110" y2="30" stroke="#333" stroke-width="2" marker-end="url(#arrow)" />

    <!-- 2. Ingest -->
    <rect x="110" y="0" width="80" height="60" rx="5" ry="5" fill="#e1f5fe" stroke="#0277bd" stroke-width="2" />
    <text x="150" y="35" font-family="Arial" font-size="12" text-anchor="middle">Ingest</text>

    <!-- Arrow -->
    <line x1="190" y1="30" x2="220" y2="30" stroke="#333" stroke-width="2" marker-end="url(#arrow)" />

    <!-- 3. Normalization -->
    <rect x="220" y="0" width="90" height="60" rx="5" ry="5" fill="#fff9c4" stroke="#fbc02d" stroke-width="2" />
    <text x="265" y="35" font-family="Arial" font-size="12" text-anchor="middle">Normalize</text>

    <!-- Arrow -->
    <line x1="310" y1="30" x2="340" y2="30" stroke="#333" stroke-width="2" marker-end="url(#arrow)" />

    <!-- 4. Enrichment -->
    <rect x="340" y="0" width="90" height="60" rx="5" ry="5" fill="#fff9c4" stroke="#fbc02d" stroke-width="2" />
    <text x="385" y="35" font-family="Arial" font-size="12" text-anchor="middle">Enrich</text>

    <!-- Arrow -->
    <line x1="430" y1="30" x2="460" y2="30" stroke="#333" stroke-width="2" marker-end="url(#arrow)" />

    <!-- 5. Assessment -->
    <rect x="460" y="0" width="90" height="60" rx="5" ry="5" fill="#e8f5e9" stroke="#2e7d32" stroke-width="2" />
    <text x="505" y="35" font-family="Arial" font-size="12" text-anchor="middle">Assess</text>
    <text x="505" y="50" font-family="Arial" font-size="10" text-anchor="middle">(Trust Score)</text>

    <!-- Arrow -->
    <line x1="550" y1="30" x2="580" y2="30" stroke="#333" stroke-width="2" marker-end="url(#arrow)" />

    <!-- 6. Utilization -->
    <rect x="580" y="-20" width="100" height="100" rx="5" ry="5" fill="#f3e5f5" stroke="#7b1fa2" stroke-width="2" />
    <text x="630" y="35" font-family="Arial" font-size="14" font-weight="bold" text-anchor="middle">Utilization</text>
    <text x="630" y="55" font-family="Arial" font-size="10" text-anchor="middle">(Decision)</text>

    <!-- Decay Path -->
    <path d="M630,80 Q630,130 385,130" stroke="#d32f2f" stroke-width="2" stroke-dasharray="5,5" marker-end="url(#arrow)" fill="none" />

    <!-- 7. Decay -->
    <rect x="340" y="100" width="90" height="60" rx="5" ry="5" fill="#ffebee" stroke="#c62828" stroke-width="2" />
    <text x="385" y="135" font-family="Arial" font-size="12" text-anchor="middle">Decay /</text>
    <text x="385" y="150" font-family="Arial" font-size="12" text-anchor="middle">Retire</text>
  </g>

  <!-- Title -->
  <text x="400" y="50" font-family="Arial" font-size="24" font-weight="bold" text-anchor="middle">Information Supply Chain Lifecycle</text>
  <text x="400" y="80" font-family="Arial" font-size="14" fill="#666" text-anchor="middle">Canonical 7-Stage Model</text>

  <!-- Legend/Key -->
  <g transform="translate(50, 420)">
     <rect x="0" y="0" width="150" height="60" fill="white" stroke="#ccc" />
     <text x="10" y="20" font-family="Arial" font-size="10" font-weight="bold">Phases:</text>
     <text x="10" y="35" font-family="Arial" font-size="10" fill="#0277bd">■ Ingestion</text>
     <text x="80" y="35" font-family="Arial" font-size="10" fill="#fbc02d">■ Processing</text>
     <text x="10" y="50" font-family="Arial" font-size="10" fill="#2e7d32">■ Trust</text>
     <text x="80" y="50" font-family="Arial" font-size="10" fill="#7b1fa2">■ Action</text>
  </g>
</svg>
