<?xml version="1.0" encoding="UTF-8" standalone="no"?>
<!DOCTYPE svg PUBLIC "-//W3C//DTD SVG 1.1//EN"
 "http://www.w3.org/Graphics/SVG/1.1/DTD/svg11.dtd">
<!-- Generated by graphviz version 2.43.0 (0)
 -->
<!-- Title: EvidenceGraph Pages: 1 -->
<svg width="471pt" height="1515pt"
 viewBox="0.00 0.00 471.00 1515.00" xmlns="http://www.w3.org/2000/svg" xmlns:xlink="http://www.w3.org/1999/xlink">
<g id="graph0" class="graph" transform="scale(1 1) rotate(0) translate(4 1511)">
<title>EvidenceGraph</title>
<polygon fill="#f8fafc" stroke="transparent" points="-4,4 -4,-1511 467,-1511 467,4 -4,4"/>
<!-- group_summit_evidence_examples -->
<g id="node1" class="node">
<title>group_summit_evidence_examples</title>
<polygon fill="#e2e8f0" stroke="black" points="264.5,-119 261.5,-123 240.5,-123 237.5,-119 61.5,-119 61.5,-46 264.5,-46 264.5,-119"/>
<text text-anchor="middle" x="163" y="-93.8" font-family="Helvetica,Arial,sans-serif" font-size="14.00">Evidence Bundle</text>
<text text-anchor="middle" x="163" y="-78.8" font-family="Helvetica,Arial,sans-serif" font-size="14.00">examples</text>
<text text-anchor="middle" x="163" y="-63.8" font-family="Helvetica,Arial,sans-serif" font-size="14.00">(summit/evidence/examples)</text>
</g>
<!-- report_summit_evidence_examples -->
<g id="node2" class="node">
<title>report_summit_evidence_examples</title>
<polygon fill="#bfdbfe" stroke="black" points="452.5,-165 366.5,-165 366.5,-122 458.5,-122 458.5,-159 452.5,-165"/>
<polyline fill="none" stroke="black" points="452.5,-165 452.5,-159 "/>
<polyline fill="none" stroke="black" points="458.5,-159 452.5,-159 "/>
<text text-anchor="middle" x="412.5" y="-139.8" font-family="Helvetica,Arial,sans-serif" font-size="14.00">report.json</text>
</g>
<!-- group_summit_evidence_examples&#45;&gt;report_summit_evidence_examples -->
<g id="edge1" class="edge">
<title>group_summit_evidence_examples&#45;&gt;report_summit_evidence_examples</title>
<path fill="none" stroke="black" stroke-dasharray="5,2" d="M264.67,-107.31C296,-115.03 329.37,-123.26 356.37,-129.91"/>
<polygon fill="black" stroke="black" points="355.85,-133.39 366.39,-132.38 357.52,-126.59 355.85,-133.39"/>
</g>
<!-- metrics_summit_evidence_examples -->
<g id="node3" class="node">
<title>metrics_summit_evidence_examples</title>
<polygon fill="#fecaca" stroke="black" points="463,-104 362,-104 362,-100 358,-100 358,-96 362,-96 362,-69 358,-69 358,-65 362,-65 362,-61 463,-61 463,-104"/>
<polyline fill="none" stroke="black" points="362,-100 366,-100 366,-96 362,-96 "/>
<polyline fill="none" stroke="black" points="362,-69 366,-69 366,-65 362,-65 "/>
<text text-anchor="middle" x="412.5" y="-78.8" font-family="Helvetica,Arial,sans-serif" font-size="14.00">metrics.json</text>
</g>
<!-- group_summit_evidence_examples&#45;&gt;metrics_summit_evidence_examples -->
<g id="edge2" class="edge">
<title>group_summit_evidence_examples&#45;&gt;metrics_summit_evidence_examples</title>
<path fill="none" stroke="black" stroke-dasharray="5,2" d="M264.67,-82.5C294.2,-82.5 325.56,-82.5 351.68,-82.5"/>
<polygon fill="black" stroke="black" points="351.79,-86 361.79,-82.5 351.79,-79 351.79,-86"/>
</g>
<!-- stamp_summit_evidence_examples -->
<g id="node4" class="node">
<title>stamp_summit_evidence_examples</title>
<polygon fill="#fef08a" stroke="black" points="460,-43 377,-43 377,-47 365,-47 365,0 460,0 460,-43"/>
<polyline fill="none" stroke="black" points="365,-43 377,-43 "/>
<text text-anchor="middle" x="412.5" y="-17.8" font-family="Helvetica,Arial,sans-serif" font-size="14.00">stamp.json</text>
</g>
<!-- group_summit_evidence_examples&#45;&gt;stamp_summit_evidence_examples -->
<g id="edge3" class="edge">
<title>group_summit_evidence_examples&#45;&gt;stamp_summit_evidence_examples</title>
<path fill="none" stroke="black" stroke-dasharray="5,2" d="M264.67,-57.69C295.4,-50.11 328.11,-42.05 354.83,-35.47"/>
<polygon fill="black" stroke="black" points="355.89,-38.81 364.77,-33.02 354.22,-32.01 355.89,-38.81"/>
</g>
<!-- group_summit_evidence_fixtures_fail_bundle_evidence -->
<g id="node5" class="node">
<title>group_summit_evidence_fixtures_fail_bundle_evidence</title>
<polygon fill="#e2e8f0" stroke="black" points="320,-241 317,-245 296,-245 293,-241 6,-241 6,-168 320,-168 320,-241"/>
<text text-anchor="middle" x="163" y="-215.8" font-family="Helvetica,Arial,sans-serif" font-size="14.00">Evidence Bundle</text>
<text text-anchor="middle" x="163" y="-200.8" font-family="Helvetica,Arial,sans-serif" font-size="14.00">evidence</text>
<text text-anchor="middle" x="163" y="-185.8" font-family="Helvetica,Arial,sans-serif" font-size="14.00">(summit/evidence/fixtures/fail_bundle/evidence)</text>
</g>
<!-- report_summit_evidence_fixtures_fail_bundle_evidence -->
<g id="node6" class="node">
<title>report_summit_evidence_fixtures_fail_bundle_evidence</title>
<polygon fill="#bfdbfe" stroke="black" points="452.5,-226 366.5,-226 366.5,-183 458.5,-183 458.5,-220 452.5,-226"/>
<polyline fill="none" stroke="black" points="452.5,-226 452.5,-220 "/>
<polyline fill="none" stroke="black" points="458.5,-220 452.5,-220 "/>
<text text-anchor="middle" x="412.5" y="-200.8" font-family="Helvetica,Arial,sans-serif" font-size="14.00">report.json</text>
</g>
<!-- group_summit_evidence_fixtures_fail_bundle_evidence&#45;&gt;report_summit_evidence_fixtures_fail_bundle_evidence -->
<g id="edge4" class="edge">
<title>group_summit_evidence_fixtures_fail_bundle_evidence&#45;&gt;report_summit_evidence_fixtures_fail_bundle_evidence</title>
<path fill="none" stroke="black" stroke-dasharray="5,2" d="M320.04,-204.5C332.63,-204.5 344.73,-204.5 355.78,-204.5"/>
<polygon fill="black" stroke="black" points="356.04,-208 366.04,-204.5 356.04,-201 356.04,-208"/>
</g>
<!-- group_summit_evidence_fixtures_pass_bundle_evidence -->
<g id="node7" class="node">
<title>group_summit_evidence_fixtures_pass_bundle_evidence</title>
<polygon fill="#e2e8f0" stroke="black" points="326,-363 323,-367 302,-367 299,-363 0,-363 0,-290 326,-290 326,-363"/>
<text text-anchor="middle" x="163" y="-337.8" font-family="Helvetica,Arial,sans-serif" font-size="14.00">Evidence Bundle</text>
<text text-anchor="middle" x="163" y="-322.8" font-family="Helvetica,Arial,sans-serif" font-size="14.00">evidence</text>
<text text-anchor="middle" x="163" y="-307.8" font-family="Helvetica,Arial,sans-serif" font-size="14.00">(summit/evidence/fixtures/pass_bundle/evidence)</text>
</g>
<!-- report_summit_evidence_fixtures_pass_bundle_evidence -->
<g id="node8" class="node">
<title>report_summit_evidence_fixtures_pass_bundle_evidence</title>
<polygon fill="#bfdbfe" stroke="black" points="452.5,-409 366.5,-409 366.5,-366 458.5,-366 458.5,-403 452.5,-409"/>
<polyline fill="none" stroke="black" points="452.5,-409 452.5,-403 "/>
<polyline fill="none" stroke="black" points="458.5,-403 452.5,-403 "/>
<text text-anchor="middle" x="412.5" y="-383.8" font-family="Helvetica,Arial,sans-serif" font-size="14.00">report.json</text>
</g>
<!-- group_summit_evidence_fixtures_pass_bundle_evidence&#45;&gt;report_summit_evidence_fixtures_pass_bundle_evidence -->
<g id="edge5" class="edge">
<title>group_summit_evidence_fixtures_pass_bundle_evidence&#45;&gt;report_summit_evidence_fixtures_pass_bundle_evidence</title>
<path fill="none" stroke="black" stroke-dasharray="5,2" d="M312.26,-363.04C327.85,-366.88 342.89,-370.59 356.36,-373.91"/>
<polygon fill="black" stroke="black" points="355.78,-377.37 366.33,-376.37 357.45,-370.57 355.78,-377.37"/>
</g>
<!-- metrics_summit_evidence_fixtures_pass_bundle_evidence -->
<g id="node9" class="node">
<title>metrics_summit_evidence_fixtures_pass_bundle_evidence</title>
<polygon fill="#fecaca" stroke="black" points="463,-348 362,-348 362,-344 358,-344 358,-340 362,-340 362,-313 358,-313 358,-309 362,-309 362,-305 463,-305 463,-348"/>
<polyline fill="none" stroke="black" points="362,-344 366,-344 366,-340 362,-340 "/>
<polyline fill="none" stroke="black" points="362,-313 366,-313 366,-309 362,-309 "/>
<text text-anchor="middle" x="412.5" y="-322.8" font-family="Helvetica,Arial,sans-serif" font-size="14.00">metrics.json</text>
</g>
<!-- group_summit_evidence_fixtures_pass_bundle_evidence&#45;&gt;metrics_summit_evidence_fixtures_pass_bundle_evidence -->
<g id="edge6" class="edge">
<title>group_summit_evidence_fixtures_pass_bundle_evidence&#45;&gt;metrics_summit_evidence_fixtures_pass_bundle_evidence</title>
<path fill="none" stroke="black" stroke-dasharray="5,2" d="M326.32,-326.5C335.07,-326.5 343.52,-326.5 351.5,-326.5"/>
<polygon fill="black" stroke="black" points="351.68,-330 361.68,-326.5 351.68,-323 351.68,-330"/>
</g>
<!-- stamp_summit_evidence_fixtures_pass_bundle_evidence -->
<g id="node10" class="node">
<title>stamp_summit_evidence_fixtures_pass_bundle_evidence</title>
<polygon fill="#fef08a" stroke="black" points="460,-287 377,-287 377,-291 365,-291 365,-244 460,-244 460,-287"/>
<polyline fill="none" stroke="black" points="365,-287 377,-287 "/>
<text text-anchor="middle" x="412.5" y="-261.8" font-family="Helvetica,Arial,sans-serif" font-size="14.00">stamp.json</text>
</g>
<!-- group_summit_evidence_fixtures_pass_bundle_evidence&#45;&gt;stamp_summit_evidence_fixtures_pass_bundle_evidence -->
<g id="edge7" class="edge">
<title>group_summit_evidence_fixtures_pass_bundle_evidence&#45;&gt;stamp_summit_evidence_fixtures_pass_bundle_evidence</title>
<path fill="none" stroke="black" stroke-dasharray="5,2" d="M312.26,-289.96C327.35,-286.24 341.94,-282.64 355.08,-279.41"/>
<polygon fill="black" stroke="black" points="355.95,-282.8 364.82,-277 354.27,-276 355.95,-282.8"/>
</g>
<!-- group_summit_evidence_templates -->
<g id="node11" class="node">
<title>group_summit_evidence_templates</title>
<polygon fill="#e2e8f0" stroke="black" points="264.5,-546 261.5,-550 240.5,-550 237.5,-546 61.5,-546 61.5,-473 264.5,-473 264.5,-546"/>
<text text-anchor="middle" x="163" y="-520.8" font-family="Helvetica,Arial,sans-serif" font-size="14.00">Evidence Bundle</text>
<text text-anchor="middle" x="163" y="-505.8" font-family="Helvetica,Arial,sans-serif" font-size="14.00">templates</text>
<text text-anchor="middle" x="163" y="-490.8" font-family="Helvetica,Arial,sans-serif" font-size="14.00">(summit/evidence/templates)</text>
</g>
<!-- report_summit_evidence_templates -->
<g id="node12" class="node">
<title>report_summit_evidence_templates</title>
<polygon fill="#bfdbfe" stroke="black" points="452.5,-592 366.5,-592 366.5,-549 458.5,-549 458.5,-586 452.5,-592"/>
<polyline fill="none" stroke="black" points="452.5,-592 452.5,-586 "/>
<polyline fill="none" stroke="black" points="458.5,-586 452.5,-586 "/>
<text text-anchor="middle" x="412.5" y="-566.8" font-family="Helvetica,Arial,sans-serif" font-size="14.00">report.json</text>
</g>
<!-- group_summit_evidence_templates&#45;&gt;report_summit_evidence_templates -->
<g id="edge8" class="edge">
<title>group_summit_evidence_templates&#45;&gt;report_summit_evidence_templates</title>
<path fill="none" stroke="black" stroke-dasharray="5,2" d="M264.67,-534.31C296,-542.03 329.37,-550.26 356.37,-556.91"/>
<polygon fill="black" stroke="black" points="355.85,-560.39 366.39,-559.38 357.52,-553.59 355.85,-560.39"/>
</g>
<!-- metrics_summit_evidence_templates -->
<g id="node13" class="node">
<title>metrics_summit_evidence_templates</title>
<polygon fill="#fecaca" stroke="black" points="463,-531 362,-531 362,-527 358,-527 358,-523 362,-523 362,-496 358,-496 358,-492 362,-492 362,-488 463,-488 463,-531"/>
<polyline fill="none" stroke="black" points="362,-527 366,-527 366,-523 362,-523 "/>
<polyline fill="none" stroke="black" points="362,-496 366,-496 366,-492 362,-492 "/>
<text text-anchor="middle" x="412.5" y="-505.8" font-family="Helvetica,Arial,sans-serif" font-size="14.00">metrics.json</text>
</g>
<!-- group_summit_evidence_templates&#45;&gt;metrics_summit_evidence_templates -->
<g id="edge9" class="edge">
<title>group_summit_evidence_templates&#45;&gt;metrics_summit_evidence_templates</title>
<path fill="none" stroke="black" stroke-dasharray="5,2" d="M264.67,-509.5C294.2,-509.5 325.56,-509.5 351.68,-509.5"/>
<polygon fill="black" stroke="black" points="351.79,-513 361.79,-509.5 351.79,-506 351.79,-513"/>
</g>
<!-- stamp_summit_evidence_templates -->
<g id="node14" class="node">
<title>stamp_summit_evidence_templates</title>
<polygon fill="#fef08a" stroke="black" points="460,-470 377,-470 377,-474 365,-474 365,-427 460,-427 460,-470"/>
<polyline fill="none" stroke="black" points="365,-470 377,-470 "/>
<text text-anchor="middle" x="412.5" y="-444.8" font-family="Helvetica,Arial,sans-serif" font-size="14.00">stamp.json</text>
</g>
<!-- group_summit_evidence_templates&#45;&gt;stamp_summit_evidence_templates -->
<g id="edge10" class="edge">
<title>group_summit_evidence_templates&#45;&gt;stamp_summit_evidence_templates</title>
<path fill="none" stroke="black" stroke-dasharray="5,2" d="M264.67,-484.69C295.4,-477.11 328.11,-469.05 354.83,-462.47"/>
<polygon fill="black" stroke="black" points="355.89,-465.81 364.77,-460.02 354.22,-459.01 355.89,-465.81"/>
</g>
<!-- group_summit_evidence_templates_keel_arch -->
<g id="node15" class="node">
<title>group_summit_evidence_templates_keel_arch</title>
<polygon fill="#e2e8f0" stroke="black" points="294.5,-729 291.5,-733 270.5,-733 267.5,-729 31.5,-729 31.5,-656 294.5,-656 294.5,-729"/>
<text text-anchor="middle" x="163" y="-703.8" font-family="Helvetica,Arial,sans-serif" font-size="14.00">Evidence Bundle</text>
<text text-anchor="middle" x="163" y="-688.8" font-family="Helvetica,Arial,sans-serif" font-size="14.00">keel&#45;arch</text>
<text text-anchor="middle" x="163" y="-673.8" font-family="Helvetica,Arial,sans-serif" font-size="14.00">(summit/evidence/templates/keel&#45;arch)</text>
</g>
<!-- report_summit_evidence_templates_keel_arch -->
<g id="node16" class="node">
<title>report_summit_evidence_templates_keel_arch</title>
<polygon fill="#bfdbfe" stroke="black" points="452.5,-775 366.5,-775 366.5,-732 458.5,-732 458.5,-769 452.5,-775"/>
<polyline fill="none" stroke="black" points="452.5,-775 452.5,-769 "/>
<polyline fill="none" stroke="black" points="458.5,-769 452.5,-769 "/>
<text text-anchor="middle" x="412.5" y="-749.8" font-family="Helvetica,Arial,sans-serif" font-size="14.00">report.json</text>
</g>
<!-- group_summit_evidence_templates_keel_arch&#45;&gt;report_summit_evidence_templates_keel_arch -->
<g id="edge11" class="edge">
<title>group_summit_evidence_templates_keel_arch&#45;&gt;report_summit_evidence_templates_keel_arch</title>
<path fill="none" stroke="black" stroke-dasharray="5,2" d="M294.64,-724.7C316.4,-730.06 337.88,-735.36 356.38,-739.91"/>
<polygon fill="black" stroke="black" points="355.78,-743.37 366.32,-742.37 357.45,-736.57 355.78,-743.37"/>
</g>
<!-- metrics_summit_evidence_templates_keel_arch -->
<g id="node17" class="node">
<title>metrics_summit_evidence_templates_keel_arch</title>
<polygon fill="#fecaca" stroke="black" points="463,-714 362,-714 362,-710 358,-710 358,-706 362,-706 362,-679 358,-679 358,-675 362,-675 362,-671 463,-671 463,-714"/>
<polyline fill="none" stroke="black" points="362,-710 366,-710 366,-706 362,-706 "/>
<polyline fill="none" stroke="black" points="362,-679 366,-679 366,-675 362,-675 "/>
<text text-anchor="middle" x="412.5" y="-688.8" font-family="Helvetica,Arial,sans-serif" font-size="14.00">metrics.json</text>
</g>
<!-- group_summit_evidence_templates_keel_arch&#45;&gt;metrics_summit_evidence_templates_keel_arch -->
<g id="edge12" class="edge">
<title>group_summit_evidence_templates_keel_arch&#45;&gt;metrics_summit_evidence_templates_keel_arch</title>
<path fill="none" stroke="black" stroke-dasharray="5,2" d="M294.64,-692.5C314.46,-692.5 334.05,-692.5 351.35,-692.5"/>
<polygon fill="black" stroke="black" points="351.82,-696 361.82,-692.5 351.82,-689 351.82,-696"/>
</g>
<!-- stamp_summit_evidence_templates_keel_arch -->
<g id="node18" class="node">
<title>stamp_summit_evidence_templates_keel_arch</title>
<polygon fill="#fef08a" stroke="black" points="460,-653 377,-653 377,-657 365,-657 365,-610 460,-610 460,-653"/>
<polyline fill="none" stroke="black" points="365,-653 377,-653 "/>
<text text-anchor="middle" x="412.5" y="-627.8" font-family="Helvetica,Arial,sans-serif" font-size="14.00">stamp.json</text>
</g>
<!-- group_summit_evidence_templates_keel_arch&#45;&gt;stamp_summit_evidence_templates_keel_arch -->
<g id="edge13" class="edge">
<title>group_summit_evidence_templates_keel_arch&#45;&gt;stamp_summit_evidence_templates_keel_arch</title>
<path fill="none" stroke="black" stroke-dasharray="5,2" d="M294.64,-660.3C315.91,-655.06 336.92,-649.88 355.12,-645.4"/>
<polygon fill="black" stroke="black" points="356.06,-648.77 364.93,-642.98 354.38,-641.97 356.06,-648.77"/>
</g>
<!-- group_summit_evidence_templates_keel_bench -->
<g id="node19" class="node">
<title>group_summit_evidence_templates_keel_bench</title>
<polygon fill="#e2e8f0" stroke="black" points="299.5,-912 296.5,-916 275.5,-916 272.5,-912 26.5,-912 26.5,-839 299.5,-839 299.5,-912"/>
<text text-anchor="middle" x="163" y="-886.8" font-family="Helvetica,Arial,sans-serif" font-size="14.00">Evidence Bundle</text>
<text text-anchor="middle" x="163" y="-871.8" font-family="Helvetica,Arial,sans-serif" font-size="14.00">keel&#45;bench</text>
<text text-anchor="middle" x="163" y="-856.8" font-family="Helvetica,Arial,sans-serif" font-size="14.00">(summit/evidence/templates/keel&#45;bench)</text>
</g>
<!-- report_summit_evidence_templates_keel_bench -->
<g id="node20" class="node">
<title>report_summit_evidence_templates_keel_bench</title>
<polygon fill="#bfdbfe" stroke="black" points="452.5,-958 366.5,-958 366.5,-915 458.5,-915 458.5,-952 452.5,-958"/>
<polyline fill="none" stroke="black" points="452.5,-958 452.5,-952 "/>
<polyline fill="none" stroke="black" points="458.5,-952 452.5,-952 "/>
<text text-anchor="middle" x="412.5" y="-932.8" font-family="Helvetica,Arial,sans-serif" font-size="14.00">report.json</text>
</g>
<!-- group_summit_evidence_templates_keel_bench&#45;&gt;report_summit_evidence_templates_keel_bench -->
<g id="edge14" class="edge">
<title>group_summit_evidence_templates_keel_bench&#45;&gt;report_summit_evidence_templates_keel_bench</title>
<path fill="none" stroke="black" stroke-dasharray="5,2" d="M299.7,-908.94C319.84,-913.91 339.55,-918.77 356.68,-922.99"/>
<polygon fill="black" stroke="black" points="355.9,-926.4 366.45,-925.4 357.58,-919.61 355.9,-926.4"/>
</g>
<!-- metrics_summit_evidence_templates_keel_bench -->
<g id="node21" class="node">
<title>metrics_summit_evidence_templates_keel_bench</title>
<polygon fill="#fecaca" stroke="black" points="463,-897 362,-897 362,-893 358,-893 358,-889 362,-889 362,-862 358,-862 358,-858 362,-858 362,-854 463,-854 463,-897"/>
<polyline fill="none" stroke="black" points="362,-893 366,-893 366,-889 362,-889 "/>
<polyline fill="none" stroke="black" points="362,-862 366,-862 366,-858 362,-858 "/>
<text text-anchor="middle" x="412.5" y="-871.8" font-family="Helvetica,Arial,sans-serif" font-size="14.00">metrics.json</text>
</g>
<!-- group_summit_evidence_templates_keel_bench&#45;&gt;metrics_summit_evidence_templates_keel_bench -->
<g id="edge15" class="edge">
<title>group_summit_evidence_templates_keel_bench&#45;&gt;metrics_summit_evidence_templates_keel_bench</title>
<path fill="none" stroke="black" stroke-dasharray="5,2" d="M299.7,-875.5C317.89,-875.5 335.74,-875.5 351.65,-875.5"/>
<polygon fill="black" stroke="black" points="351.8,-879 361.8,-875.5 351.8,-872 351.8,-879"/>
</g>
<!-- stamp_summit_evidence_templates_keel_bench -->
<g id="node22" class="node">
<title>stamp_summit_evidence_templates_keel_bench</title>
<polygon fill="#fef08a" stroke="black" points="460,-836 377,-836 377,-840 365,-840 365,-793 460,-793 460,-836"/>
<polyline fill="none" stroke="black" points="365,-836 377,-836 "/>
<text text-anchor="middle" x="412.5" y="-810.8" font-family="Helvetica,Arial,sans-serif" font-size="14.00">stamp.json</text>
</g>
<!-- group_summit_evidence_templates_keel_bench&#45;&gt;stamp_summit_evidence_templates_keel_bench -->
<g id="edge16" class="edge">
<title>group_summit_evidence_templates_keel_bench&#45;&gt;stamp_summit_evidence_templates_keel_bench</title>
<path fill="none" stroke="black" stroke-dasharray="5,2" d="M299.7,-842.06C319.09,-837.28 338.09,-832.59 354.76,-828.48"/>
<polygon fill="black" stroke="black" points="355.96,-831.79 364.83,-826 354.28,-825 355.96,-831.79"/>
</g>
<!-- group_summit_evidence_templates_keel_dscl -->
<g id="node23" class="node">
<title>group_summit_evidence_templates_keel_dscl</title>
<polygon fill="#e2e8f0" stroke="black" points="293,-1095 290,-1099 269,-1099 266,-1095 33,-1095 33,-1022 293,-1022 293,-1095"/>
<text text-anchor="middle" x="163" y="-1069.8" font-family="Helvetica,Arial,sans-serif" font-size="14.00">Evidence Bundle</text>
<text text-anchor="middle" x="163" y="-1054.8" font-family="Helvetica,Arial,sans-serif" font-size="14.00">keel&#45;dscl</text>
<text text-anchor="middle" x="163" y="-1039.8" font-family="Helvetica,Arial,sans-serif" font-size="14.00">(summit/evidence/templates/keel&#45;dscl)</text>
</g>
<!-- report_summit_evidence_templates_keel_dscl -->
<g id="node24" class="node">
<title>report_summit_evidence_templates_keel_dscl</title>
<polygon fill="#bfdbfe" stroke="black" points="452.5,-1141 366.5,-1141 366.5,-1098 458.5,-1098 458.5,-1135 452.5,-1141"/>
<polyline fill="none" stroke="black" points="452.5,-1141 452.5,-1135 "/>
<polyline fill="none" stroke="black" points="458.5,-1135 452.5,-1135 "/>
<text text-anchor="middle" x="412.5" y="-1115.8" font-family="Helvetica,Arial,sans-serif" font-size="14.00">report.json</text>
</g>
<!-- group_summit_evidence_templates_keel_dscl&#45;&gt;report_summit_evidence_templates_keel_dscl -->
<g id="edge17" class="edge">
<title>group_summit_evidence_templates_keel_dscl&#45;&gt;report_summit_evidence_templates_keel_dscl</title>
<path fill="none" stroke="black" stroke-dasharray="5,2" d="M293.19,-1090.34C315.44,-1095.83 337.46,-1101.25 356.36,-1105.91"/>
<polygon fill="black" stroke="black" points="355.68,-1109.35 366.23,-1108.34 357.36,-1102.55 355.68,-1109.35"/>
</g>
<!-- metrics_summit_evidence_templates_keel_dscl -->
<g id="node25" class="node">
<title>metrics_summit_evidence_templates_keel_dscl</title>
<polygon fill="#fecaca" stroke="black" points="463,-1080 362,-1080 362,-1076 358,-1076 358,-1072 362,-1072 362,-1045 358,-1045 358,-1041 362,-1041 362,-1037 463,-1037 463,-1080"/>
<polyline fill="none" stroke="black" points="362,-1076 366,-1076 366,-1072 362,-1072 "/>
<polyline fill="none" stroke="black" points="362,-1045 366,-1045 366,-1041 362,-1041 "/>
<text text-anchor="middle" x="412.5" y="-1054.8" font-family="Helvetica,Arial,sans-serif" font-size="14.00">metrics.json</text>
</g>
<!-- group_summit_evidence_templates_keel_dscl&#45;&gt;metrics_summit_evidence_templates_keel_dscl -->
<g id="edge18" class="edge">
<title>group_summit_evidence_templates_keel_dscl&#45;&gt;metrics_summit_evidence_templates_keel_dscl</title>
<path fill="none" stroke="black" stroke-dasharray="5,2" d="M293.19,-1058.5C313.66,-1058.5 333.94,-1058.5 351.77,-1058.5"/>
<polygon fill="black" stroke="black" points="351.97,-1062 361.97,-1058.5 351.97,-1055 351.97,-1062"/>
</g>
<!-- stamp_summit_evidence_templates_keel_dscl -->
<g id="node26" class="node">
<title>stamp_summit_evidence_templates_keel_dscl</title>
<polygon fill="#fef08a" stroke="black" points="460,-1019 377,-1019 377,-1023 365,-1023 365,-976 460,-976 460,-1019"/>
<polyline fill="none" stroke="black" points="365,-1019 377,-1019 "/>
<text text-anchor="middle" x="412.5" y="-993.8" font-family="Helvetica,Arial,sans-serif" font-size="14.00">stamp.json</text>
</g>
<!-- group_summit_evidence_templates_keel_dscl&#45;&gt;stamp_summit_evidence_templates_keel_dscl -->
<g id="edge19" class="edge">
<title>group_summit_evidence_templates_keel_dscl&#45;&gt;stamp_summit_evidence_templates_keel_dscl</title>
<path fill="none" stroke="black" stroke-dasharray="5,2" d="M293.19,-1026.66C314.94,-1021.3 336.48,-1015.99 355.09,-1011.4"/>
<polygon fill="black" stroke="black" points="355.95,-1014.79 364.83,-1009 354.28,-1008 355.95,-1014.79"/>
</g>
<!-- group_summit_evidence_templates_keel_stab -->
<g id="node27" class="node">
<title>group_summit_evidence_templates_keel_stab</title>
<polygon fill="#e2e8f0" stroke="black" points="294,-1278 291,-1282 270,-1282 267,-1278 32,-1278 32,-1205 294,-1205 294,-1278"/>
<text text-anchor="middle" x="163" y="-1252.8" font-family="Helvetica,Arial,sans-serif" font-size="14.00">Evidence Bundle</text>
<text text-anchor="middle" x="163" y="-1237.8" font-family="Helvetica,Arial,sans-serif" font-size="14.00">keel&#45;stab</text>
<text text-anchor="middle" x="163" y="-1222.8" font-family="Helvetica,Arial,sans-serif" font-size="14.00">(summit/evidence/templates/keel&#45;stab)</text>
</g>
<!-- report_summit_evidence_templates_keel_stab -->
<g id="node28" class="node">
<title>report_summit_evidence_templates_keel_stab</title>
<polygon fill="#bfdbfe" stroke="black" points="452.5,-1324 366.5,-1324 366.5,-1281 458.5,-1281 458.5,-1318 452.5,-1324"/>
<polyline fill="none" stroke="black" points="452.5,-1324 452.5,-1318 "/>
<polyline fill="none" stroke="black" points="458.5,-1318 452.5,-1318 "/>
<text text-anchor="middle" x="412.5" y="-1298.8" font-family="Helvetica,Arial,sans-serif" font-size="14.00">report.json</text>
</g>
<!-- group_summit_evidence_templates_keel_stab&#45;&gt;report_summit_evidence_templates_keel_stab -->
<g id="edge20" class="edge">
<title>group_summit_evidence_templates_keel_stab&#45;&gt;report_summit_evidence_templates_keel_stab</title>
<path fill="none" stroke="black" stroke-dasharray="5,2" d="M294.27,-1273.61C316.29,-1279.03 338.02,-1284.39 356.69,-1288.99"/>
<polygon fill="black" stroke="black" points="355.89,-1292.4 366.44,-1291.39 357.57,-1285.6 355.89,-1292.4"/>
</g>
<!-- metrics_summit_evidence_templates_keel_stab -->
<g id="node29" class="node">
<title>metrics_summit_evidence_templates_keel_stab</title>
<polygon fill="#fecaca" stroke="black" points="463,-1263 362,-1263 362,-1259 358,-1259 358,-1255 362,-1255 362,-1228 358,-1228 358,-1224 362,-1224 362,-1220 463,-1220 463,-1263"/>
<polyline fill="none" stroke="black" points="362,-1259 366,-1259 366,-1255 362,-1255 "/>
<polyline fill="none" stroke="black" points="362,-1228 366,-1228 366,-1224 362,-1224 "/>
<text text-anchor="middle" x="412.5" y="-1237.8" font-family="Helvetica,Arial,sans-serif" font-size="14.00">metrics.json</text>
</g>
<!-- group_summit_evidence_templates_keel_stab&#45;&gt;metrics_summit_evidence_templates_keel_stab -->
<g id="edge21" class="edge">
<title>group_summit_evidence_templates_keel_stab&#45;&gt;metrics_summit_evidence_templates_keel_stab</title>
<path fill="none" stroke="black" stroke-dasharray="5,2" d="M294.27,-1241.5C314.42,-1241.5 334.35,-1241.5 351.89,-1241.5"/>
<polygon fill="black" stroke="black" points="351.93,-1245 361.93,-1241.5 351.93,-1238 351.93,-1245"/>
</g>
<!-- stamp_summit_evidence_templates_keel_stab -->
<g id="node30" class="node">
<title>stamp_summit_evidence_templates_keel_stab</title>
<polygon fill="#fef08a" stroke="black" points="460,-1202 377,-1202 377,-1206 365,-1206 365,-1159 460,-1159 460,-1202"/>
<polyline fill="none" stroke="black" points="365,-1202 377,-1202 "/>
<text text-anchor="middle" x="412.5" y="-1176.8" font-family="Helvetica,Arial,sans-serif" font-size="14.00">stamp.json</text>
</g>
<!-- group_summit_evidence_templates_keel_stab&#45;&gt;stamp_summit_evidence_templates_keel_stab -->
<g id="edge22" class="edge">
<title>group_summit_evidence_templates_keel_stab&#45;&gt;stamp_summit_evidence_templates_keel_stab</title>
<path fill="none" stroke="black" stroke-dasharray="5,2" d="M294.27,-1209.39C315.6,-1204.14 336.66,-1198.95 354.92,-1194.44"/>
<polygon fill="black" stroke="black" points="355.89,-1197.81 364.76,-1192.02 354.22,-1191.01 355.89,-1197.81"/>
</g>
<!-- group_artifacts_ai_evals -->
<g id="node31" class="node">
<title>group_artifacts_ai_evals</title>
<polygon fill="#e2e8f0" stroke="black" points="230.5,-1461 227.5,-1465 206.5,-1465 203.5,-1461 95.5,-1461 95.5,-1388 230.5,-1388 230.5,-1461"/>
<text text-anchor="middle" x="163" y="-1435.8" font-family="Helvetica,Arial,sans-serif" font-size="14.00">Evidence Bundle</text>
<text text-anchor="middle" x="163" y="-1420.8" font-family="Helvetica,Arial,sans-serif" font-size="14.00">ai&#45;evals</text>
<text text-anchor="middle" x="163" y="-1405.8" font-family="Helvetica,Arial,sans-serif" font-size="14.00">(artifacts/ai&#45;evals)</text>
</g>
<!-- report_artifacts_ai_evals -->
<g id="node32" class="node">
<title>report_artifacts_ai_evals</title>
<polygon fill="#bfdbfe" stroke="black" points="452.5,-1507 366.5,-1507 366.5,-1464 458.5,-1464 458.5,-1501 452.5,-1507"/>
<polyline fill="none" stroke="black" points="452.5,-1507 452.5,-1501 "/>
<polyline fill="none" stroke="black" points="458.5,-1501 452.5,-1501 "/>
<text text-anchor="middle" x="412.5" y="-1481.8" font-family="Helvetica,Arial,sans-serif" font-size="14.00">report.json</text>
</g>
<!-- group_artifacts_ai_evals&#45;&gt;report_artifacts_ai_evals -->
<g id="edge23" class="edge">
<title>group_artifacts_ai_evals&#45;&gt;report_artifacts_ai_evals</title>
<path fill="none" stroke="black" stroke-dasharray="5,2" d="M230.65,-1440.93C269.91,-1450.6 318.99,-1462.7 356.12,-1471.85"/>
<polygon fill="black" stroke="black" points="355.7,-1475.35 366.25,-1474.35 357.38,-1468.56 355.7,-1475.35"/>
</g>
<!-- metrics_artifacts_ai_evals -->
<g id="node33" class="node">
<title>metrics_artifacts_ai_evals</title>
<polygon fill="#fecaca" stroke="black" points="463,-1446 362,-1446 362,-1442 358,-1442 358,-1438 362,-1438 362,-1411 358,-1411 358,-1407 362,-1407 362,-1403 463,-1403 463,-1446"/>
<polyline fill="none" stroke="black" points="362,-1442 366,-1442 366,-1438 362,-1438 "/>
<polyline fill="none" stroke="black" points="362,-1411 366,-1411 366,-1407 362,-1407 "/>
<text text-anchor="middle" x="412.5" y="-1420.8" font-family="Helvetica,Arial,sans-serif" font-size="14.00">metrics.json</text>
</g>
<!-- group_artifacts_ai_evals&#45;&gt;metrics_artifacts_ai_evals -->
<g id="edge24" class="edge">
<title>group_artifacts_ai_evals&#45;&gt;metrics_artifacts_ai_evals</title>
<path fill="none" stroke="black" stroke-dasharray="5,2" d="M230.65,-1424.5C268.34,-1424.5 315.08,-1424.5 351.61,-1424.5"/>
<polygon fill="black" stroke="black" points="351.62,-1428 361.62,-1424.5 351.62,-1421 351.62,-1428"/>
</g>
<!-- stamp_artifacts_ai_evals -->
<g id="node34" class="node">
<title>stamp_artifacts_ai_evals</title>
<polygon fill="#fef08a" stroke="black" points="460,-1385 377,-1385 377,-1389 365,-1389 365,-1342 460,-1342 460,-1385"/>
<polyline fill="none" stroke="black" points="365,-1385 377,-1385 "/>
<text text-anchor="middle" x="412.5" y="-1359.8" font-family="Helvetica,Arial,sans-serif" font-size="14.00">stamp.json</text>
</g>
<!-- group_artifacts_ai_evals&#45;&gt;stamp_artifacts_ai_evals -->
<g id="edge25" class="edge">
<title>group_artifacts_ai_evals&#45;&gt;stamp_artifacts_ai_evals</title>
<path fill="none" stroke="black" stroke-dasharray="5,2" d="M230.65,-1408.07C269.39,-1398.53 317.69,-1386.62 354.62,-1377.52"/>
<polygon fill="black" stroke="black" points="355.85,-1380.82 364.72,-1375.03 354.18,-1374.02 355.85,-1380.82"/>
</g>
</g>
</svg>
